<?xml version="1.0" standalone="no"?>
<!DOCTYPE svg PUBLIC "-//W3C//DTD SVG 20010904//EN"
 "http://www.w3.org/TR/2001/REC-SVG-20010904/DTD/svg10.dtd">
<svg version="1.0" xmlns="http://www.w3.org/2000/svg"
 width="512.000000pt" height="512.000000pt" viewBox="0 0 512.000000 512.000000"
 preserveAspectRatio="xMidYMid meet">
<metadata>
Created by potrace 1.16, written by Peter Selinger 2001-2019
</metadata>
<g transform="translate(0.000000,512.000000) scale(0.100000,-0.100000)"
fill="#063946" stroke="none">
<path d="M4060 4566 c0 -8 -3 -16 -8 -18 -4 -1 -25 -39 -47 -83 -21 -44 -43
-81 -47 -83 -4 -2 -8 -12 -8 -23 0 -10 -4 -19 -10 -19 -5 0 -10 -9 -10 -20 0
-11 -4 -20 -10 -20 -5 0 -10 -9 -10 -20 0 -11 -4 -20 -10 -20 -5 0 -10 -9 -10
-20 0 -11 -4 -20 -10 -20 -5 0 -10 -7 -10 -15 0 -8 -4 -15 -10 -15 -5 0 -10
-9 -10 -20 0 -11 -4 -20 -10 -20 -5 0 -10 -9 -10 -20 0 -11 -4 -20 -10 -20 -5
0 -10 -9 -10 -20 0 -11 -4 -20 -10 -20 -5 0 -10 -7 -10 -15 0 -9 -9 -25 -20
-37 -11 -12 -20 -28 -20 -35 0 -7 -4 -13 -10 -13 -5 0 -10 -7 -10 -15 0 -9 -9
-25 -20 -37 -11 -12 -20 -28 -20 -35 0 -7 -4 -13 -10 -13 -5 0 -10 -7 -10 -15
0 -9 -9 -25 -20 -37 -11 -12 -20 -28 -20 -35 0 -7 -4 -13 -8 -13 -4 0 -21 -20
-36 -45 -16 -25 -33 -45 -37 -45 -5 0 -9 -5 -9 -11 0 -6 -13 -30 -30 -54 -16
-24 -30 -51 -30 -59 0 -9 -4 -16 -10 -16 -5 0 -10 -13 -10 -30 0 -16 -4 -30
-10 -30 -5 0 -10 -13 -10 -30 0 -16 -4 -30 -10 -30 -5 0 -10 -9 -10 -20 0 -11
-7 -20 -15 -20 -11 0 -13 -8 -8 -30 4 -23 2 -30 -10 -30 -13 0 -15 -7 -10 -30
4 -24 2 -30 -11 -30 -13 0 -16 -5 -11 -20 5 -14 2 -20 -9 -20 -9 0 -16 -9 -16
-20 0 -11 -4 -20 -10 -20 -5 0 -10 -7 -10 -16 0 -20 -24 -44 -44 -44 -19 0
-21 -16 -3 -23 9 -3 7 -10 -5 -23 -17 -18 -18 -17 -18 9 0 15 -4 27 -10 27 -5
0 -10 9 -10 20 0 11 -4 20 -10 20 -5 0 -10 10 -10 21 0 12 -9 30 -21 40 -12
10 -23 35 -26 59 -3 22 -10 43 -14 46 -5 3 -9 16 -9 30 0 40 -22 54 -84 54
-56 0 -56 0 -56 -30 0 -16 5 -30 10 -30 6 0 10 -13 10 -30 0 -16 5 -30 10 -30
6 0 10 -13 10 -30 0 -16 5 -30 10 -30 6 0 10 -16 10 -35 0 -19 5 -35 10 -35
18 0 11 -18 -10 -25 -11 -3 -20 -12 -20 -20 0 -23 -31 -27 -37 -5 -3 11 -9 20
-14 20 -5 0 -9 7 -9 15 0 8 -4 15 -10 15 -5 0 -10 7 -10 15 0 8 -4 15 -10 15
-5 0 -10 9 -10 20 0 11 -4 20 -10 20 -5 0 -10 9 -10 20 0 11 -4 20 -10 20 -5
0 -10 9 -10 20 0 11 -4 20 -10 20 -5 0 -10 9 -10 20 0 11 -4 20 -8 20 -5 0
-15 23 -22 50 -7 28 -17 50 -22 50 -4 0 -8 14 -8 30 0 17 -4 30 -10 30 -5 0
-10 14 -10 30 0 17 -3 30 -8 30 -9 0 -42 90 -42 114 0 9 -4 16 -10 16 -5 0
-10 14 -10 30 0 17 -4 30 -10 30 -5 0 -10 14 -10 30 0 17 -4 30 -10 30 -5 0
-10 14 -10 30 0 17 -4 30 -10 30 -5 0 -10 14 -10 30 0 17 -4 30 -10 30 -5 0
-10 14 -10 30 0 17 -4 30 -10 30 -5 0 -10 14 -10 30 0 17 -4 30 -10 30 -5 0
-10 11 -10 25 0 14 -4 25 -10 25 -5 0 -10 14 -10 30 0 17 -4 30 -10 30 -5 0
-10 9 -10 20 0 11 -4 20 -10 20 -5 0 -10 13 -10 28 0 16 -8 34 -20 42 -11 8
-20 22 -20 32 0 10 -4 18 -10 18 -5 0 -10 9 -10 19 0 11 -6 21 -12 24 -7 2
-10 8 -6 12 5 5 16 -2 27 -13 15 -18 29 -22 85 -22 37 0 66 4 66 10 0 6 -4 10
-10 10 -5 0 -10 6 -10 13 0 16 -76 97 -108 115 -64 36 -85 44 -127 49 -118 13
-158 14 -168 4 -6 -6 -20 -11 -31 -11 -32 0 -87 -22 -164 -67 -40 -24 -76 -43
-80 -43 -5 0 -18 -9 -30 -21 -21 -19 -23 -19 -29 -2 -7 19 -28 43 -37 43 -3 0
-6 -6 -6 -14 0 -17 -27 -29 -35 -16 -4 6 -1 10 4 10 20 0 11 17 -28 59 -22 23
-48 41 -60 41 -11 0 -21 5 -21 11 0 8 -24 10 -77 7 -59 -4 -91 -12 -133 -33
-30 -15 -56 -31 -58 -36 -2 -5 -10 -9 -17 -9 -16 0 -165 -144 -165 -160 0 -7
-13 -25 -30 -40 -16 -15 -30 -33 -30 -39 0 -7 -9 -21 -20 -33 -11 -12 -20 -28
-20 -35 0 -7 -4 -13 -8 -13 -7 0 -33 -45 -77 -131 -5 -10 -13 -19 -17 -19 -5
0 -8 -9 -8 -20 0 -11 -4 -20 -10 -20 -5 0 -10 -9 -10 -20 0 -11 -4 -20 -10
-20 -5 0 -10 -9 -10 -20 0 -11 -4 -20 -9 -20 -5 0 -14 -13 -21 -30 -7 -16 -16
-30 -21 -30 -5 0 -9 -9 -9 -20 0 -11 -4 -20 -10 -20 -5 0 -10 -9 -10 -20 0
-11 -4 -20 -10 -20 -5 0 -10 -9 -10 -20 0 -11 -4 -20 -10 -20 -5 0 -10 -9 -10
-20 0 -11 -4 -20 -10 -20 -5 0 -10 -9 -10 -20 0 -11 -4 -20 -10 -20 -5 0 -10
-9 -10 -20 0 -11 -4 -20 -10 -20 -5 0 -10 -8 -11 -17 0 -10 -14 -40 -30 -68
-16 -27 -32 -58 -35 -67 -4 -10 -10 -18 -15 -18 -5 0 -9 -7 -9 -15 0 -8 -11
-38 -25 -67 -13 -28 -28 -66 -31 -85 -3 -18 -10 -36 -15 -39 -5 -3 -9 -23 -9
-45 0 -21 -4 -39 -10 -39 -6 0 -10 -27 -10 -60 0 -33 -4 -60 -10 -60 -5 0 -10
-22 -10 -50 l0 -50 115 0 c70 0 115 4 115 10 0 6 17 10 38 10 39 0 92 19 92
33 0 4 7 7 15 7 19 0 105 84 105 103 0 7 9 19 20 27 11 8 20 22 20 32 0 10 5
18 10 18 6 0 10 9 10 20 0 11 5 20 10 20 6 0 10 7 10 15 0 8 5 15 10 15 6 0
10 9 10 20 0 11 5 20 10 20 6 0 10 9 10 20 0 11 5 20 10 20 6 0 10 9 10 20 0
11 5 20 10 20 6 0 10 8 10 18 0 10 9 24 20 32 11 8 20 22 20 32 0 10 5 18 10
18 6 0 10 9 10 20 0 11 5 20 10 20 6 0 10 12 10 26 l0 26 -80 -4 c-44 -2 -80
0 -80 4 0 5 5 8 10 8 6 0 10 9 10 20 0 11 5 20 10 20 6 0 10 9 10 20 0 11 5
20 10 20 6 0 10 7 10 15 0 8 5 15 10 15 6 0 10 9 10 20 0 11 5 20 10 20 6 0
10 7 10 15 0 8 5 15 10 15 6 0 10 7 10 15 0 8 4 15 8 15 5 0 15 12 23 28 8 15
22 34 31 43 10 9 18 22 18 28 0 7 11 23 25 37 14 14 25 29 25 34 0 5 6 15 13
22 7 7 24 29 37 48 40 58 111 141 183 212 37 37 67 74 67 83 0 8 5 15 10 15 6
0 10 9 10 20 0 22 16 27 22 8 6 -16 78 56 78 77 0 8 3 15 6 15 12 0 33 -35 34
-55 1 -22 39 -97 40 -77 0 6 5 12 11 12 6 0 17 7 26 15 18 18 33 11 33 -16 0
-10 5 -19 10 -19 6 0 10 -7 10 -15 0 -9 10 -15 26 -15 24 0 25 2 19 33 -4 17
-11 34 -16 35 -12 5 -12 22 0 22 5 0 14 -13 21 -30 7 -16 16 -30 21 -30 5 0 9
-8 9 -18 0 -10 9 -24 20 -32 11 -8 20 -25 20 -37 0 -13 5 -23 10 -23 6 0 10
-9 10 -20 0 -11 5 -20 10 -20 6 0 10 -11 10 -25 0 -14 5 -25 10 -25 6 0 10 -9
10 -20 0 -11 5 -20 10 -20 6 0 10 -11 10 -25 0 -14 5 -25 10 -25 6 0 10 -9 10
-19 0 -11 5 -23 10 -26 6 -3 10 -17 10 -31 0 -13 5 -24 10 -24 6 0 10 -6 10
-14 0 -12 24 -78 51 -141 30 -70 59 -150 59 -162 0 -7 4 -13 8 -13 5 0 15 -22
22 -50 7 -27 17 -50 22 -50 4 0 8 -6 8 -14 0 -7 18 -48 40 -91 22 -43 40 -84
40 -91 0 -8 5 -14 10 -14 6 0 10 -7 10 -15 0 -8 14 -29 30 -47 17 -17 30 -35
30 -40 0 -15 129 -138 145 -138 8 0 15 -9 15 -20 0 -16 -7 -20 -30 -20 -16 0
-30 -4 -30 -10 0 -6 30 -10 69 -10 39 0 73 5 76 10 3 6 17 10 30 10 13 0 27
-4 30 -10 3 -5 19 -10 36 -10 16 0 29 5 29 10 0 6 23 10 50 10 28 0 50 -4 50
-10 0 -6 28 -10 65 -10 37 0 65 4 65 10 0 6 11 10 24 10 14 0 28 -4 31 -10 3
-5 24 -10 46 -10 21 0 39 5 39 10 0 15 77 12 84 -2 5 -10 7 -10 12 0 3 7 25
12 55 12 27 0 49 5 49 10 0 6 9 10 20 10 11 0 20 5 20 10 0 6 7 10 15 10 8 0
25 8 37 18 48 37 198 190 198 200 0 7 5 12 10 12 6 0 10 5 10 10 0 22 -33 8
-74 -32 -24 -24 -65 -61 -91 -83 -26 -22 -53 -44 -59 -50 -26 -23 -55 -34 -61
-25 -3 6 -1 10 5 10 16 0 120 110 120 126 0 8 5 14 10 14 6 0 10 7 10 15 0 8
5 15 10 15 6 0 10 7 10 15 0 8 5 15 10 15 6 0 10 7 10 15 0 8 5 15 10 15 6 0
10 9 10 20 0 11 5 20 10 20 6 0 10 9 10 20 0 11 5 20 10 20 6 0 10 9 10 20 0
11 5 20 10 20 6 0 10 9 10 20 0 11 5 20 10 20 6 0 10 9 10 20 0 11 5 20 10 20
6 0 10 7 10 15 0 8 5 15 10 15 6 0 10 9 10 20 0 11 5 20 10 20 6 0 10 11 10
25 0 14 5 25 10 25 6 0 10 9 10 20 0 11 5 20 10 20 6 0 10 9 10 19 0 11 5 23
10 26 6 3 10 15 10 26 0 10 5 19 10 19 6 0 10 9 10 20 0 11 5 20 10 20 6 0 10
9 10 20 0 11 5 20 10 20 6 0 10 9 10 20 0 11 5 20 10 20 6 0 10 9 10 20 0 11
5 20 10 20 6 0 10 6 10 14 0 7 34 80 77 162 42 82 81 159 87 171 6 13 14 23
19 23 4 0 7 9 7 20 0 11 5 20 10 20 6 0 10 9 10 20 0 11 5 20 10 20 6 0 10 6
10 14 0 14 39 96 51 106 3 3 12 20 20 38 8 17 17 32 21 32 5 0 8 9 8 19 0 11
6 22 13 24 6 3 -70 6 -170 6 -152 1 -183 -1 -183 -13z"/>
<path d="M3940 4500 c-14 -11 -28 -20 -33 -20 -13 0 -137 -129 -137 -143 0 -7
-9 -19 -20 -27 -11 -8 -20 -22 -20 -32 0 -10 -4 -18 -10 -18 -5 0 -10 -11 -10
-25 0 -14 -4 -25 -10 -25 -5 0 -10 -9 -10 -20 0 -18 7 -20 70 -20 56 0 70 3
70 15 0 8 5 15 10 15 6 0 10 8 10 18 0 10 9 24 20 32 11 8 20 22 20 32 0 10 5
18 10 18 6 0 10 11 10 25 0 14 5 25 10 25 6 0 10 9 10 20 0 11 5 20 10 20 6 0
10 9 10 20 0 11 5 20 10 20 6 0 10 9 10 20 0 11 5 20 10 20 6 0 10 9 10 19 0
11 6 22 13 24 6 3 1 6 -13 6 -14 0 -36 -8 -50 -19z"/>
<path d="M2320 3088 c0 -16 52 -78 66 -78 5 0 16 -9 24 -20 8 -11 25 -20 37
-20 13 0 23 -4 23 -10 0 -6 28 -10 65 -10 37 0 65 4 65 10 0 6 -7 10 -15 10
-9 0 -31 15 -49 33 -93 89 -106 97 -163 97 -36 0 -53 -4 -53 -12z"/>
<path d="M100 2460 c0 -20 6 -20 2411 -20 2290 0 2410 1 2407 18 -3 16 -127
17 -2411 20 -2402 2 -2407 2 -2407 -18z"/>
<path d="M1375 1883 c-16 -2 -34 -9 -39 -14 -6 -5 -18 -9 -28 -9 -10 0 -18 -4
-18 -10 0 -5 -7 -10 -15 -10 -9 0 -31 -16 -50 -35 -19 -19 -35 -41 -35 -50 0
-8 -4 -15 -10 -15 -6 0 -10 -29 -10 -67 0 -111 47 -169 202 -250 149 -79 173
-96 197 -141 26 -48 -3 -124 -59 -155 -45 -25 -184 -26 -245 -2 -22 9 -48 18
-57 22 -10 3 -18 9 -18 14 0 5 -4 9 -10 9 -6 0 -10 -26 -10 -59 l0 -59 53 -18
c37 -12 83 -17 162 -17 93 -1 118 3 160 22 55 25 115 83 115 112 0 11 5 19 10
19 6 0 10 30 10 70 0 40 -4 70 -10 70 -5 0 -10 7 -10 15 0 20 -79 99 -122 123
-18 10 -66 36 -106 58 -41 21 -93 57 -118 80 -38 37 -44 47 -44 83 0 34 6 48
35 76 19 19 41 35 49 35 8 0 18 5 21 10 3 6 42 10 85 10 43 0 82 -4 85 -10 3
-5 17 -10 30 -10 13 0 27 -4 30 -10 3 -5 13 -10 21 -10 19 0 20 93 0 109 -15
13 -199 23 -251 14z"/>
<path d="M630 1834 c-11 -25 -20 -49 -20 -53 0 -4 -9 -26 -20 -49 -11 -22 -20
-48 -20 -56 0 -8 -4 -18 -10 -21 -5 -3 -10 -17 -10 -31 0 -13 -4 -24 -10 -24
-5 0 -10 -9 -10 -19 0 -11 -4 -23 -10 -26 -5 -3 -10 -17 -10 -31 0 -13 -4 -24
-10 -24 -5 0 -10 -11 -10 -25 0 -14 -4 -25 -10 -25 -5 0 -10 -13 -10 -30 0
-16 -4 -30 -10 -30 -5 0 -10 -11 -10 -25 0 -14 -4 -25 -10 -25 -5 0 -10 -11
-10 -25 0 -14 -4 -25 -10 -25 -5 0 -10 -13 -10 -30 0 -16 -4 -30 -10 -30 -5 0
-10 -9 -10 -19 0 -11 -4 -23 -10 -26 -5 -3 -10 -17 -10 -31 0 -13 -4 -24 -10
-24 -5 0 -10 -11 -10 -24 0 -14 -4 -28 -10 -31 -5 -3 -10 -17 -10 -31 0 -22 4
-24 50 -24 38 0 50 4 50 15 0 8 5 15 10 15 6 0 10 14 10 30 0 17 5 30 10 30 6
0 10 13 10 29 0 16 3 31 8 33 4 2 14 23 23 48 l16 45 181 3 c177 2 182 2 182
-18 0 -11 5 -20 10 -20 6 0 10 -9 10 -20 0 -20 4 -29 28 -77 7 -13 12 -32 12
-43 0 -11 4 -20 9 -20 5 0 11 -10 13 -22 2 -18 11 -24 37 -26 19 -2 44 -1 57
2 l23 6 -40 97 c-21 53 -39 102 -39 110 0 7 -4 13 -10 13 -5 0 -10 14 -10 30
0 17 -4 30 -10 30 -5 0 -10 9 -10 19 0 11 -4 23 -10 26 -5 3 -10 17 -10 31 0
13 -4 24 -10 24 -5 0 -10 11 -10 25 0 14 -4 25 -10 25 -5 0 -10 9 -10 20 0 11
-4 29 -10 40 -5 11 -14 29 -20 40 -5 11 -10 29 -10 40 0 11 -4 20 -10 20 -5 0
-10 14 -10 30 0 17 -4 30 -10 30 -5 0 -10 9 -10 20 0 11 -4 20 -10 20 -5 0
-10 14 -10 30 0 17 -4 30 -10 30 -5 0 -10 7 -10 15 0 8 -4 23 -9 33 -5 9 -12
25 -15 35 -4 13 -17 17 -56 17 -51 0 -51 0 -70 -46z m96 -151 c9 -32 21 -62
26 -67 4 -6 8 -20 8 -33 0 -13 5 -23 10 -23 6 0 10 -11 10 -24 0 -14 5 -28 10
-31 6 -3 10 -17 10 -31 0 -13 5 -24 10 -24 6 0 10 -13 10 -30 0 -16 5 -30 10
-30 6 0 10 -9 10 -20 0 -19 -7 -20 -146 -20 -135 0 -146 1 -139 18 4 9 13 37
21 62 8 25 19 54 24 65 14 32 58 156 72 203 7 23 18 42 25 42 6 0 19 -26 29
-57z"/>
<path d="M1855 1858 c-3 -13 -4 -205 -3 -428 l3 -405 45 0 45 0 3 163 2 162
110 0 c67 0 110 4 110 10 0 6 11 10 25 10 14 0 33 6 42 14 10 8 33 27 51 42
18 14 42 44 52 64 72 141 28 296 -100 357 -45 21 -83 26 -232 30 -147 4 -147
4 -153 -19z m315 -88 c0 -5 7 -10 15 -10 20 0 65 -45 65 -65 0 -8 5 -15 10
-15 6 0 10 -25 10 -55 0 -87 -47 -155 -119 -175 -56 -15 -147 -23 -175 -16
l-26 6 0 170 0 170 110 0 c67 0 110 -4 110 -10z"/>
<path d="M2805 1858 c-3 -13 -4 -205 -3 -428 l3 -405 29 -3 c15 -2 39 -1 53 3
l25 6 -4 344 c-2 271 0 345 10 345 6 0 12 -8 12 -18 0 -10 9 -24 20 -32 11 -8
20 -22 20 -32 0 -10 5 -18 10 -18 6 0 10 -7 10 -15 0 -8 5 -15 10 -15 6 0 10
-7 10 -15 0 -8 5 -15 10 -15 6 0 10 -7 10 -15 0 -8 5 -15 10 -15 6 0 10 -7 10
-15 0 -8 5 -15 10 -15 6 0 10 -5 10 -11 0 -6 14 -30 30 -54 17 -24 30 -48 30
-54 0 -6 4 -11 9 -11 5 0 14 -13 21 -30 7 -16 16 -30 21 -30 4 0 11 -9 14 -20
3 -11 12 -26 18 -32 21 -22 87 -127 87 -138 0 -5 5 -10 10 -10 6 0 10 -7 10
-15 0 -8 5 -15 10 -15 6 0 10 -7 10 -15 0 -8 5 -15 10 -15 6 0 10 -7 10 -15 0
-12 13 -15 60 -15 l60 0 0 430 0 430 -36 0 c-66 0 -65 5 -61 -332 2 -167 8
-320 12 -340 4 -21 4 -38 0 -38 -11 0 -35 28 -35 42 0 8 -9 20 -20 28 -11 8
-20 21 -20 30 0 9 -9 22 -20 30 -11 8 -20 22 -20 32 0 10 -4 18 -9 18 -5 0
-13 9 -16 20 -3 11 -12 26 -18 32 -7 7 -34 47 -60 88 -25 41 -50 80 -54 85 -4
6 -14 22 -22 38 -8 15 -18 27 -23 27 -4 0 -8 8 -8 18 0 10 -9 24 -20 32 -11 8
-20 21 -20 30 0 9 -9 22 -20 30 -11 8 -20 22 -20 32 0 10 -4 18 -10 18 -5 0
-10 7 -10 15 0 8 -4 15 -10 15 -5 0 -10 5 -10 11 0 25 -30 39 -84 39 -49 0
-56 -3 -61 -22z"/>
<path d="M3717 1873 c-4 -3 -7 -194 -7 -424 0 -371 2 -418 16 -423 9 -3 110
-6 225 -6 l209 0 0 45 0 45 -159 0 c-88 0 -166 3 -175 6 -14 5 -16 28 -16 150
l0 143 153 3 152 3 3 43 3 42 -140 0 c-76 0 -146 3 -155 6 -14 5 -16 27 -16
140 l0 134 163 2 162 3 3 48 3 47 -209 0 c-115 0 -212 -3 -215 -7z"/>
<path d="M4240 1830 l0 -50 125 0 125 0 0 -381 0 -380 48 3 47 3 3 378 2 377
120 0 120 0 0 50 0 50 -295 0 -295 0 0 -50z"/>
</g>
</svg>
