<?xml version="1.0" encoding="iso-8859-1"?>
<!-- Generator: Adobe Illustrator 19.0.0, SVG Export Plug-In . SVG Version: 6.00 Build 0)  -->
<svg version="1.1" id="Layer_1" xmlns="http://www.w3.org/2000/svg" xmlns:xlink="http://www.w3.org/1999/xlink" x="0px" y="0px"
	 viewBox="0 0 511.999 511.999" style="enable-background:new 0 0 511.999 511.999;" xml:space="preserve">
<path style="fill:#063946;" d="M377.086,34.319H101.681C45.824,34.319,0.544,79.6,0.544,135.457v275.405
	c0,55.857,45.281,101.137,101.137,101.137h275.405c55.857,0,101.138-45.281,101.138-101.137V135.457
	C478.224,79.6,432.943,34.319,377.086,34.319z"/>
<g>
	<path style="fill:#FFFFFF;" d="M186.582,182.324c-1.993-9.165-9.648-15.089-19.501-15.089c-9.599,0-18.693,5.544-23.128,14.045
		L35.146,378.471c-3.295,5.971-4.035,12.716-2.033,18.502c1.745,5.041,5.391,8.953,10.266,11.015l0.282,0.107
		c2.292,0.764,5.055,1.203,7.581,1.203c9.193,0,18.144-5.519,22.783-14.029l23.001-41.212h76.272l8.067,40.022
		c1.628,8.96,9.383,15.218,18.857,15.218c2.61,0,4.928-0.345,7.755-1.153l0.23-0.073c12.251-4.347,19.96-16.874,17.557-28.489
		L186.582,182.324z M164.386,309.522H121.7l31.286-57.005L164.386,309.522z"/>
	<path style="fill:#FFFFFF;" d="M438.981,243.41c3.64-20.452-1.038-39.69-13.169-54.171c-11.887-14.189-29.483-22.003-49.549-22.003
		h-59.928c-12.108,0-23.575,9.705-25.559,21.599l-34.8,197.439c-1.178,5.887,0.201,11.769,3.783,16.138
		c3.587,4.375,9.077,6.885,15.062,6.885c12.108,0,23.575-9.705,25.554-21.586l12.488-69.478h35.668l0.374,0.122
		c3.258,1.057,10.021,3.253,15.285,7.104c2.884,2.366,5.738,5.033,7.177,8.482l0.049,0.112c1.124,2.472,2.027,5.62,1.042,11.853
		c-3.159,19.652-3.006,32.238,0.483,42.006c1.883,5.645,5.263,10.327,10.049,13.916l0.174,0.123c4.128,2.752,9.422,4.33,14.525,4.33
		c4.28,0,7.401-0.942,8.968-1.551c11.701-3.6,19.893-15.946,18.285-27.605l-0.029-0.184c-1.049-5.593-4.447-10.269-9.457-13.127
		c-0.096-3.189,0.15-8.552,1.748-16.541l0.022-0.122c2.373-14.233,0.621-27.567-5.066-38.561l-0.077-0.143
		c-1.991-3.482-4.228-6.74-6.784-9.877C423.335,284.341,435.53,264.43,438.981,243.41z M394.574,242.004
		c-3.372,17.477-19.997,31.694-37.059,31.694h-36.91l11.01-61.593h37.954c8.087,0,15.135,3.089,19.846,8.699
		C394.15,226.445,395.979,233.996,394.574,242.004z"/>
</g>
<circle style="fill:#063946;" cx="439.455" cy="72" r="72"/>
<path style="fill:#FFFFFF;" d="M475.403,63.284h-27.232V36.05c0-4.813-3.901-8.716-8.716-8.716c-4.815,0-8.716,3.902-8.716,8.716
	v27.234h-27.235c-4.815,0-8.716,3.902-8.716,8.716c0,4.813,3.901,8.716,8.716,8.716h27.235v27.234c0,4.813,3.901,8.716,8.716,8.716
	c4.815,0,8.716-3.902,8.716-8.716V80.715h27.234c4.815,0,8.716-3.902,8.716-8.716C484.12,67.186,480.218,63.284,475.403,63.284z"/>
<g>
</g>
<g>
</g>
<g>
</g>
<g>
</g>
<g>
</g>
<g>
</g>
<g>
</g>
<g>
</g>
<g>
</g>
<g>
</g>
<g>
</g>
<g>
</g>
<g>
</g>
<g>
</g>
<g>
</g>
</svg>
