<?xml version="1.0" encoding="utf-8"?>
<!-- Generator: Adobe Illustrator 19.2.1, SVG Export Plug-In . SVG Version: 6.00 Build 0)  -->
<svg version="1.1" id="layer" xmlns="http://www.w3.org/2000/svg" xmlns:xlink="http://www.w3.org/1999/xlink" x="0px" y="0px"
	 viewBox="0 0 652 652" style="enable-background:new 0 0 652 652;" xml:space="preserve">
<style type="text/css">
	.st0{fill:#063946;}
</style>
<g>
	<g id="icon">
		<path id="Shape" class="st0" d="M127,279.6c-25.5,0-46.2,20.7-46.2,46.2s20.7,46.2,46.2,46.2s46.2-20.7,46.2-46.2
			C173.1,300.2,152.4,279.6,127,279.6z"/>
		<circle id="Oval" class="st0" cx="193.2" cy="262.6" r="21.1"/>
		<path id="Shape_1_" class="st0" d="M219.1,283.7l-0.8-1.9l-1.4,1.7c-3.4,3.9-7.9,6.9-12.7,8.7l-1.4,0.6l0.6,1.4
			c4.3,10.1,6.3,20.8,6.3,31.7c0,45.6-37.1,82.8-82.8,82.8s-82.7-37.2-82.7-82.8s37.1-82.8,82.8-82.8c12.4,0,24.2,2.8,35.4,8
			l1.2,0.6l0.6-1.4c2.1-4.8,5.2-9,9.4-12.3l1.7-1.4l-1.9-1c-14.5-7.4-30-11.3-46.4-11.3c-55.8,0-101.3,45.5-101.3,101.3
			s45.5,101.3,101.3,101.3s101.3-45.5,101.3-101.3C228.2,311.1,225.1,297.1,219.1,283.7z"/>
	</g>
	<g id="logotype" transform="translate(40.000000, 8.000000)">
		<rect id="Rectangle-path" x="240.4" y="273.6" class="st0" width="21.4" height="88.2"/>
		<rect id="Rectangle-path_1_" x="470.9" y="273.6" class="st0" width="21.4" height="88.2"/>
		<path id="Shape_2_" class="st0" d="M421.5,271.6c-15,0-26.6,9.1-29.2,11.6l-1.4-9.5h-17.8v88.2h21.4v-53.3c0-10.5,14.2-19,24.7-19
			c10.2,0,18.2,9.9,18.2,21.8v50.6h21.4v-48.5C458.6,290.2,448.6,271.6,421.5,271.6z"/>
		<path id="Shape_3_" class="st0" d="M548.2,345.8c-16.1,0-26.7-12.5-26.7-28.1c0-15.6,10.6-28.1,26.7-28.1c13.6,0,22,13.2,22,13.2
			l15.4-10.3c-4.4-6.9-9.6-11-16.7-15.3c-5.2-3.2-12.3-5.8-20.1-5.8c-26.7,0-47.1,20.1-47.3,46.2c0.1,26,20.5,46.2,47.3,46.2
			c7.9,0,14.9-2.6,20.1-5.8c7-4.3,12.3-8.4,16.7-15.3l-15.4-10.3C570.2,332.5,561.9,345.8,548.2,345.8z"/>
		<path id="path3000_1_" class="st0" d="M317.4,271.6c-26.9,0-46.2,21.1-46.2,45.7c0,25.1,18.7,46.6,46.6,46.6
			c25.2,0,45.7-19.3,45.7-46C363.5,287.3,339.6,271.6,317.4,271.6z M317.7,289.8c13.2,0,25.8,10.7,25.8,28.1c0,16.9-12.5,28-25.9,28
			c-14.6,0-26.2-11.8-26.2-28.1C291.4,301.6,302.8,289.8,317.7,289.8z"/>
	</g>
</g>
</svg>
