<svg xmlns="http://www.w3.org/2000/svg" xmlns:xlink="http://www.w3.org/1999/xlink" viewBox="0 0 66 65" fill="#fff" fill-rule="evenodd" stroke="#000" stroke-linecap="round" stroke-linejoin="round"><use xlink:href="#A" x=".5" y=".5"/><symbol id="A" overflow="visible"><g stroke="none" fill-rule="nonzero"><path d="M64 52.8C64 59 59 64 52.8 64H11.2C5 64 0 59 0 52.8V11.2C0 5 5 0 11.2 0h41.6C59 0 64 5 64 11.2z" fill="#ff4800"/><path d="M13.903 16.8c.16 3.67 3.334 17.68 3.334 17.68 1.17 2.837 2.164 0 2.164 0 3.846-11.508-4.007-18.176-4.007-18.176-2-1.17-1.492.497-1.492.497m45.52-2.003s3.846 2.676 0 3.173c0 0-14.345 1.667-25.02 11.67 0 0-15.997 14-22.007 29.348 0 0-2.003 0-1.33-2.998S15.73 39.816 33.57 23.644c0 0 17.182-15.675 25.853-8.847"/></g></symbol></svg>