<svg xmlns="http://www.w3.org/2000/svg" xmlns:xlink="http://www.w3.org/1999/xlink" viewBox="0 0 66 65" fill="#fff" fill-rule="evenodd" stroke="#000" stroke-linecap="round" stroke-linejoin="round"><use xlink:href="#A" x=".5" y=".5"/><symbol id="A" overflow="visible"><g stroke="none" fill-rule="nonzero"><path d="M63.397 22.51c0 6.716-2.792 12.14-8.364 16.26s-13.358 6.175-23.37 6.175h-5.535l-4.244 18.39H7.257L20.763 6.9h19.804c3.7 0 6.9.258 9.656.763 2.743.504 5.117 1.378 7.1 2.62 1.968 1.242 3.48 2.854 4.514 4.834 1.033 1.968 1.55 4.44 1.55 7.393z" fill="#009cde"/><path d="M22.375 63.94H6.495l13.8-57.653h20.27c3.702 0 6.987.258 9.754.763 2.805.517 5.265 1.427 7.32 2.694 2.054 1.292 3.653 3 4.736 5.068S64 19.47 64 22.5c0 6.888-2.89 12.534-8.6 16.753-5.658 4.182-13.64 6.298-23.74 6.298h-5.056zM8.032 62.734h13.37l4.244-18.39h6.015c9.828 0 17.578-2.042 23.014-6.064 2.694-1.993 4.748-4.33 6.09-6.938s2.017-5.584 2.017-8.832c0-2.84-.504-5.24-1.488-7.134-.984-1.882-2.423-3.42-4.293-4.6-1.92-1.193-4.244-2.042-6.9-2.534-2.694-.492-5.904-.75-9.545-.75H21.243z"/><path d="M56.903 16.225c0 6.716-2.792 12.14-8.364 16.26s-13.358 6.175-23.37 6.175h-5.535L15.39 57.05H.763L13.79.603h20.284c3.7 0 6.9.258 9.656.763 2.743.504 5.117 1.378 7.1 2.62 1.968 1.242 3.48 2.854 4.514 4.834 1.033 1.968 1.55 4.44 1.55 7.405z" fill="#0f3572"/><path d="M15.868 57.654H0L13.297 0h20.776c3.702 0 6.987.258 9.754.763 2.805.517 5.265 1.427 7.32 2.694 2.054 1.292 3.653 3 4.736 5.068s1.624 4.65 1.624 7.688c0 6.888-2.89 12.534-8.6 16.753-5.658 4.182-13.64 6.298-23.74 6.298H20.1zM1.525 56.436h13.383l4.244-18.39h6.015c9.828 0 17.578-2.042 23.014-6.064 2.694-1.993 4.748-4.33 6.09-6.938s2.017-5.584 2.017-8.832c0-2.84-.504-5.24-1.488-7.134-.984-1.882-2.423-3.42-4.293-4.6-1.92-1.193-4.244-2.042-6.9-2.534-2.694-.492-5.904-.75-9.545-.75H14.256zM41.87 18.23c-.11 1.722-.455 2.99-1.513 4.453-1.046 1.464-2.276 2.41-3.924 3.198a10.67 10.67 0 0 1-3.112.923c-1.082.148-2.374.234-3.887.234h-7.27l4.07-14.59h6.605c1.685 0 3.038.025 4.06.258 1.02.22 1.857.53 2.485.9.873.517 1.574 1.144 1.98 1.943.504.935.566 1.538.504 2.67z"/></g></symbol></svg>