<svg xmlns="http://www.w3.org/2000/svg" xmlns:xlink="http://www.w3.org/1999/xlink" viewBox="0 0 152 151" fill="#fff" fill-rule="evenodd" stroke="#000" stroke-linecap="round" stroke-linejoin="round"><use xlink:href="#A" x=".5" y=".5"/><symbol id="A" overflow="visible"><g stroke="none" fill-rule="nonzero"><path d="M0 22.5C0 10.035 10.035 0 22.5 0h105C139.965 0 150 10.035 150 22.5v105c0 12.465-10.035 22.5-22.5 22.5h-105C10.035 150 0 139.965 0 127.5z" fill="#6fda44"/><path d="M104.649 86.983c-4.981 0-9.668-2.109-13.887-5.537l1.025-4.863.029-.176c.938-5.156 3.838-13.828 12.832-13.828a12.23 12.23 0 0 1 12.217 12.217c0 6.738-5.479 12.188-12.217 12.188zm0-36.768c-11.484 0-20.361 7.441-23.994 19.717-5.508-8.291-9.697-18.223-12.129-26.602H56.162v32.139a11.52 11.52 0 0 1-11.514 11.514 11.52 11.52 0 0 1-11.514-11.514V43.301H20.801V75.44c0 13.154 10.693 23.965 23.848 23.965S68.496 88.594 68.496 75.44v-5.391c2.402 5.01 5.332 10.078 8.906 14.531l-7.559 35.566h12.627l5.478-25.781c4.805 3.076 10.313 5.01 16.641 5.01 13.535 0 24.551-11.074 24.551-24.639.029-13.506-10.957-24.521-24.492-24.521"/></g></symbol></svg>