<svg xmlns="http://www.w3.org/2000/svg" viewBox="0 0 70.49 85.31">
  <defs>
    <style>
      .cls-1 {
        fill: #063946;
      }

      .cls-2 {
        fill: #d7b680;
      }
    </style>
  </defs>
  <title>Asset 8</title>
  <g id="Layer_2" data-name="Layer 2">
    <g id="Layer_1-2" data-name="Layer 1">
      <g>
        <path class="cls-1" d="M43.72,29.61c-.07.05-.06,0,0,0Z"/>
        <path class="cls-1" d="M45.44,41.45c-.11,0-.14.09-.18.17l-1,2.14c-.2.4-.2.42.2.62l1.65.76c.33.16.35.16.5-.16s.43-.89.64-1.34c.13-.3.25-.6.39-.88a.23.23,0,0,0-.13-.36L47,42.16l-1.41-.68Z"/>
        <path class="cls-1" d="M53.2,37.23A9.4,9.4,0,0,0,53.08,36c-.12-.78-.28-1.56-.47-2.33a25.78,25.78,0,0,0-1-3.13,43.72,43.72,0,0,0-2-4.23c-.69-1.34-1.45-2.63-2.25-3.9S45.86,20,45,18.83c-.62-.86-1.24-1.71-1.87-2.56s-1.5-2-2.27-2.94l-2.39-3A24,24,0,0,1,36,6.82a9.32,9.32,0,0,1-.92-2.54A4.57,4.57,0,0,1,35.18,2,2.8,2.8,0,0,1,36.44.36a2,2,0,0,0,.19-.12.15.15,0,0,0,0-.17S36.59,0,36.54,0a.92.92,0,0,0-.64.16,3.34,3.34,0,0,0-1.41,1.54,6,6,0,0,0-.58,2.67c0,.28,0,.55,0,.82a6.59,6.59,0,0,0,.35,2,9.23,9.23,0,0,0,1,2.22.36.36,0,0,1,0,.45,6.76,6.76,0,0,0-.88,1.63,5.76,5.76,0,0,0-.37,1.74A6.47,6.47,0,0,0,34.58,16c.06.16.13.32.2.48l1.51,2.2c.67.69,1.36,1.38,2,2.09a30.91,30.91,0,0,1,2.11,2.45,10,10,0,0,1,1.93,3.4,3.24,3.24,0,0,1,.15,1.06,9.25,9.25,0,0,1-.21,1.48,6.18,6.18,0,0,1-.78,1.76c-.31.5-.73.92-1,1.4a2.23,2.23,0,0,0-.35,1.92c.15.59.34,1.17.54,1.74a1.9,1.9,0,0,0,.32.72,6.31,6.31,0,0,1,1.55-1.84,21.83,21.83,0,0,1,1.95-1.49A11.46,11.46,0,0,0,46,32.06a1.27,1.27,0,0,1,.45-.38,3.76,3.76,0,0,1-.14,1.8,11.26,11.26,0,0,1-2.46,3.74c-.73.79-1.54,1.51-2.3,2.27s-1.69,1.71-2.47,2.64a10.15,10.15,0,0,0-.74,1A9.84,9.84,0,0,0,37.15,46c0,.2-.1.39-.14.59a20,20,0,0,0-.34,2.17,4.72,4.72,0,0,1-.1.64c-.2.92-.28,1.86-.41,2.78a13.3,13.3,0,0,1-.4,2.09,4.34,4.34,0,0,1-1.08,1.88,2.49,2.49,0,0,1-2.69.57,5.11,5.11,0,0,1-2.3-1.89l-.05-.06-2.88-3.59-.65-.75a46.58,46.58,0,0,1-3.7-5C21.66,44.18,21,43,20.33,41.75a.27.27,0,0,1-.1-.18C19.8,40.74,19.39,39.9,19,39a7,7,0,0,1-.3-2,11.19,11.19,0,0,1,.61-4.14,11,11,0,0,1,1.26-2.58,14.62,14.62,0,0,1,2.3-2.67,26.37,26.37,0,0,1,3-2.36c1.4-1,2.83-1.88,4.24-2.83a7.65,7.65,0,0,0,1.93-1.79,6.9,6.9,0,0,0,.84-1.47L33,19a6.06,6.06,0,0,0,.26-3.81,5.7,5.7,0,0,0-.25-.73,2.58,2.58,0,0,0-.43-.66,2,2,0,0,0-2.75,0,1.83,1.83,0,0,0,2.49,2.68c.06-.06.12-.14.24-.07a2.28,2.28,0,0,1,0,.69,3.85,3.85,0,0,1-1.09,2,11.91,11.91,0,0,1-2.81,2.18c-.86.51-1.74,1-2.59,1.54s-1.61,1-2.39,1.52a22.72,22.72,0,0,0-2.4,1.87A13.61,13.61,0,0,0,19,29a12.46,12.46,0,0,0-1.34,3.22,10.47,10.47,0,0,0-.33,2.09,4.1,4.1,0,0,0-.09.92,7.79,7.79,0,0,1,.09,1,14.56,14.56,0,0,0,.7,3.46s0,.1.05.15a22.58,22.58,0,0,0,1.87,3.92,60.82,60.82,0,0,0,4.89,7c.91,1.14,1.73,2.1,2.33,2.76l.56.59a5.26,5.26,0,0,1,.79,1.08v0a10.41,10.41,0,0,0,2.57,3.21,5.26,5.26,0,0,0,4,1.29,3,3,0,0,0,2.1-1.13A4.92,4.92,0,0,0,38,56.25c.05-.32.08-.64.14-1,.18-.93.23-1.87.36-2.8.09-.65.09-1.32.19-2,.14-.92.25-1.84.44-2.76a6.16,6.16,0,0,1,.41-1.39,6.85,6.85,0,0,1,1.11-1.62c.9-1,1.87-2,2.85-3a18.73,18.73,0,0,0,3-3.61,8.38,8.38,0,0,0,.89-1.92,8.82,8.82,0,0,0,.28-2.06c0-.59-.1-1.18-.14-1.78a21.53,21.53,0,0,0-.49-2.89l-.45-1.85a2.18,2.18,0,0,0-.22-.57.22.22,0,0,0-.19.12,6.9,6.9,0,0,1-1.45,1.6,5.4,5.4,0,0,1-1.08.82c-.07.05-.06,0,0,0a7,7,0,0,0,.2-.79,7.51,7.51,0,0,0-.43-3.84,14,14,0,0,0-1.83-3.36,28.15,28.15,0,0,0-2.44-2.9c-.64-.66-1.27-1.33-1.9-2a10.39,10.39,0,0,1-1.88-2.39,3.24,3.24,0,0,1-.12-3,2.08,2.08,0,0,1,.57-.79c.22.31.42.61.63.89,1.1,1.43,2.19,2.86,3.32,4.27s2,2.53,3,3.82,1.78,2.42,2.63,3.65,1.71,2.59,2.49,3.93c.33.57.64,1.15,1,1.72A27.06,27.06,0,0,1,50,31.25c.26.64.49,1.3.72,2a13.12,13.12,0,0,1,.62,3.21,11.38,11.38,0,0,1-.11,2.26,8,8,0,0,1-.16,1,13.73,13.73,0,0,1-1,2.69,10.09,10.09,0,0,1-1.6,2.32,8.16,8.16,0,0,1-3.18,2.15,8.48,8.48,0,0,1-3.6.45c-.51,0-1-.19-1.5-.27-.32-.06-.37,0-.43.27a21.75,21.75,0,0,0-.44,2.54.19.19,0,0,0,.15.24c.21.08.42.17.63.23a11.25,11.25,0,0,0,3.41.53,5.54,5.54,0,0,0,.81-.07A12.61,12.61,0,0,0,46,50.47a9.38,9.38,0,0,0,2.79-1.21,8.76,8.76,0,0,0,2.38-2.32,11.36,11.36,0,0,0,1.65-3.69,20.5,20.5,0,0,0,.51-4A18.43,18.43,0,0,0,53.2,37.23ZM19.92,43.55h0v0s0,0,0,0A0,0,0,0,1,19.92,43.55Z"/>
        <path class="cls-1" d="M45.44,41.45l.1,0,1.41.68.54.24a.23.23,0,0,1,.13.36c-.14.28-.26.58-.39.88-.21.45-.42.89-.64,1.34s-.17.32-.5.16l-1.65-.76c-.4-.2-.4-.22-.2-.62l1-2.14C45.3,41.54,45.33,41.45,45.44,41.45Z"/>
        <path class="cls-1" d="M43.72,29.61c-.07.05-.06,0,0,0Z"/>
        <path class="cls-1" d="M19.93,43.52a0,0,0,0,1,0,0h0v0S19.93,43.52,19.93,43.52Z"/>
        <line class="cls-1" x1="34.78" y1="16.43" x2="34.76" y2="16.41"/>
        <line class="cls-1" x1="36.3" y1="18.64" x2="36.29" y2="18.63"/>
        <path class="cls-1" d="M20.33,41.75a1.62,1.62,0,0,1-.1-.18"/>
        <path class="cls-1" d="M38.84,25a1.53,1.53,0,0,0-2.56-.18,6.88,6.88,0,0,0-1.42,3.23,10.6,10.6,0,0,1-.37,1.71,4,4,0,0,1-2.44,2.13,5.05,5.05,0,0,1-2.64.24,8.68,8.68,0,0,1-1-.27.34.34,0,0,0,0-.1l1.19-1.1h0l.1-.09h0l.15-.14c.35-.33.8-.57.82-1.14,0-.24.05-.48.08-.71.07-.69-.08-.91-.75-1.07a8.29,8.29,0,0,0-3-.09,9.71,9.71,0,0,0-5.25,2.28,1.42,1.42,0,0,0-.51.76,13.93,13.93,0,0,0-.07,1.83.24.24,0,0,0,.1.19.23.23,0,0,0,.2-.07c.13-.1.23-.23.35-.34A1.39,1.39,0,0,1,23,31.52a8.2,8.2,0,0,1,2.55.92c.13.07.15.14.07.28-.21.38-.4.76-.59,1.16A16.1,16.1,0,0,0,23.9,37c0,.15-.11.18-.25.21a2.91,2.91,0,0,0-.56.15v.1l.6.28c-.05.55-.13,1.08-.15,1.62s0,1.09,0,1.63a12.6,12.6,0,0,0,1.63,5.68,5.15,5.15,0,0,0,2.32,2.18l.28.12h0c.08,0,2,.94,5.12-.37.23-.09.47-.21.71-.33a8.49,8.49,0,0,0,1.16-.75A10.26,10.26,0,0,0,37.05,45c.15-.24.29-.48.43-.73a9.25,9.25,0,0,0,1.05-2.85,7.61,7.61,0,0,0,.11-1.07h0v-.67a.49.49,0,0,0,0-.12,4.9,4.9,0,0,0-.15-1.17,4.75,4.75,0,0,0-.95-2.11A2.92,2.92,0,0,0,35.2,35a13.16,13.16,0,0,0-2.5.32c-2,.43-4,.93-6,1.38-.61.14-1.23.23-1.88.35a.85.85,0,0,1,0-.17,13.86,13.86,0,0,1,2-3.44c.13-.16.25-.11.4-.05a8.36,8.36,0,0,0,3.91.85,3.62,3.62,0,0,0,2.59-1.13,6.26,6.26,0,0,0,1.5-3.53c0-.24.12-.22.28-.17.46.14.91.29,1.37.39a5.47,5.47,0,0,0,2.48-.06.58.58,0,0,0,.46-.42,3.13,3.13,0,0,0,.14-.79A5.5,5.5,0,0,0,38.84,25ZM28.47,38.16a14.18,14.18,0,0,0,1.93-.34c1.21-.26,2.41-.58,3.63-.81a3.74,3.74,0,0,1,3.29.77.69.69,0,0,1,.13.11h0c.17.13,1.48,1.34.11,3.71a10.59,10.59,0,0,1-3.14,3.75h0a8.51,8.51,0,0,1-2.22,1.28h0a9,9,0,0,1-1.27.39l-.31.06-.66.08a6.12,6.12,0,0,1-1.47-.06,4.38,4.38,0,0,1-1.4-.39,4.16,4.16,0,0,1-1.89-1.87,8.52,8.52,0,0,1-.87-4.94c.05-.61.15-1.21.22-1.82,0-.16.07-.21.24-.17A13.39,13.39,0,0,0,28.47,38.16Zm-1.54-7.25c-.05.05-.16.1-.21.07-.53-.23-1-.48-1.57-.72a4.53,4.53,0,0,1,3-.55ZM38.42,27.8a6.55,6.55,0,0,1-2.28-.35c-.25-.09-.15-.26-.07-.38a1.28,1.28,0,0,1,.92-.58,1.68,1.68,0,0,1,1.64,1C38.66,27.68,38.61,27.8,38.42,27.8Z"/>
        <path class="cls-1" d="M30.17,48.53l.31-.05A.23.23,0,0,0,30.17,48.53Z"/>
        <path class="cls-1" d="M26.66,48a4.57,4.57,0,0,0,1.38.45A6.94,6.94,0,0,1,26.66,48Z"/>
        <path class="cls-1" d="M26.66,48a4.57,4.57,0,0,0,1.38.45A6.94,6.94,0,0,1,26.66,48Z"/>
      </g>
      <rect class="cls-1" x="56.54" y="81.59" width="13.95" height="0.62"/>
      <path class="cls-2" d="M5.16,63.1H3.93l.55,1.24L0,75.38H.24l1.67-4.15H7.44L8.6,74a1.91,1.91,0,0,0,2.05,1.4h1.22L7.21,64.51A1.93,1.93,0,0,0,5.16,63.1ZM2,71l2.59-6.37L7.33,71Zm11.73-9.92h-.47V73.84c0,1.36,1,1.54,2,1.54h.49V62.61C15.71,61.24,14.64,61.09,13.73,61.09Zm12,2H25v8.65c0,3.07-.49,3.63-2.59,3.63v.22c4,0,5-.67,5-3.85V64.64C27.49,63.25,26.65,63.07,25.74,63.1Zm5.91,9.22c0-1.36,1.1-2.08,2.38-2.61,1.75-.74,3.81-1.11,3.81-2.23,0-1.27-1.91-2-3.82-2a6.28,6.28,0,0,0-3.5,1.06v1.79c.68-1.36,1.6-2.63,3.2-2.63,1.25,0,1.9.73,1.9,1.58a2.47,2.47,0,0,1-1.48,2.09c-1.94,1-5.05,1.19-5.05,3.66a2.47,2.47,0,0,0,2.58,2.45,6.58,6.58,0,0,0,3.92-1.6C34.17,74.88,31.65,74.46,31.65,72.32ZM37.83,74V70.62a6.23,6.23,0,0,1-2.24,3.28,1.4,1.4,0,0,0,1.46,1.6,2.24,2.24,0,0,0,1.64-.64C38.12,75,37.83,74.72,37.83,74Zm10.66.1V70.72A7,7,0,0,1,46.25,74a1.4,1.4,0,0,0,1.46,1.6A2.24,2.24,0,0,0,49.35,75C48.77,75.11,48.49,74.82,48.49,74.07Zm-6.18-1.65c0-1.37,1.08-2.08,2.38-2.61,1.75-.74,3.81-1.11,3.81-2.23s-1.91-2-3.84-2a6.11,6.11,0,0,0-3.48,1.07v1.77c.68-1.35,1.6-2.62,3.2-2.62,1.25,0,1.89.74,1.89,1.58a2.45,2.45,0,0,1-1.47,2.09c-1.94,1-5.06,1.19-5.06,3.66a2.47,2.47,0,0,0,2.59,2.45A6.63,6.63,0,0,0,46.25,74C44.83,75,42.31,74.56,42.31,72.42ZM63.08,65.6A5.19,5.19,0,0,0,59.69,67l-.18.15a2.56,2.56,0,0,0-2.66-1.5A5.16,5.16,0,0,0,53.47,67c-.17-1-1.1-1.13-1.93-1.13h-.47v8c0,1.36,1,1.54,2,1.54h.48V67.2a3.46,3.46,0,0,1,2.07-1c.89,0,1.72.67,1.72,2.3v5.34c0,1.36,1,1.54,2,1.54h.49V68.47a3.62,3.62,0,0,0-.15-1.14l.12-.13a3.37,3.37,0,0,1,2.08-1c.9,0,1.72.67,1.72,2.3v5.34c0,1.36,1,1.54,2,1.54H66V68.47A2.58,2.58,0,0,0,63.08,65.6Zm6.2-1.3a1.14,1.14,0,0,0,1.21-1.2,1.21,1.21,0,0,0-2.41,0A1.14,1.14,0,0,0,69.28,64.3Zm-.78,1.52H68v8c0,1.36,1,1.54,1.95,1.54h.5v-8C70.49,66,69.42,65.82,68.5,65.82Z"/>
      <g>
        <path class="cls-2" d="M15.89,78.64v.63h1.28V83.7h.68V79.27h1.29v-.63Z"/>
        <path class="cls-2" d="M21.87,82.08a1.32,1.32,0,0,1-.36.79,1,1,0,0,1-.74.29,1,1,0,0,1-.78-.34,1.18,1.18,0,0,1-.32-.87A1.13,1.13,0,0,1,20,81.1a1,1,0,0,1,.78-.35,1.16,1.16,0,0,1,.42.08,1.27,1.27,0,0,1,.35.27L19.86,82l.25.48,2.28-1.26a2.1,2.1,0,0,0-.67-.81,1.73,1.73,0,0,0-.95-.28,1.67,1.67,0,0,0-.67.14,1.48,1.48,0,0,0-.57.4,1.5,1.5,0,0,0-.38.58A1.59,1.59,0,0,0,19,82a1.79,1.79,0,0,0,1.3,1.75,1.8,1.8,0,0,0,.46.05,1.58,1.58,0,0,0,1.14-.43,2,2,0,0,0,.6-1.17Z"/>
        <path class="cls-2" d="M25,80.83h.27v-.6H25a3.56,3.56,0,0,0-.74.07,1.92,1.92,0,0,0-.54.26,1.81,1.81,0,0,0-.56.61,1.72,1.72,0,0,0-.2.79,1.55,1.55,0,0,0,.56,1.26A2.14,2.14,0,0,0,25,83.7h.31v-.59H25A1.66,1.66,0,0,1,24,82.8a1,1,0,0,1-.39-.82,1.05,1.05,0,0,1,.39-.84A1.66,1.66,0,0,1,25,80.83Z"/>
        <path class="cls-2" d="M28.5,80.6a1.2,1.2,0,0,0-1-.44,1.27,1.27,0,0,0-.5.1,1.54,1.54,0,0,0-.44.31V78.64h-.63V83.7h.63V81.83a1.14,1.14,0,0,1,.23-.77.78.78,0,0,1,.63-.28A.72.72,0,0,1,28,81a1,1,0,0,1,.21.68v2h.63V81.8A1.79,1.79,0,0,0,28.5,80.6Z"/>
        <path class="cls-2" d="M32.16,80.61a1.38,1.38,0,0,0-1.07-.43,1.39,1.39,0,0,0-1.07.43,1.71,1.71,0,0,0-.4,1.2V83.7h.61v-2a.9.9,0,0,1,.25-.67.78.78,0,0,1,.61-.25.8.8,0,0,1,.62.25,1,1,0,0,1,.24.67v2h.61V81.81A1.71,1.71,0,0,0,32.16,80.61Z"/>
        <path class="cls-2" d="M36.52,81.28a1.6,1.6,0,0,0-.37-.58,1.67,1.67,0,0,0-.58-.4,1.85,1.85,0,0,0-.67-.12,1.82,1.82,0,0,0-.65.12,1.73,1.73,0,0,0-.57.4,1.5,1.5,0,0,0-.38.58,1.59,1.59,0,0,0-.14.68,1.68,1.68,0,0,0,.14.7,1.8,1.8,0,0,0,.38.59,1.68,1.68,0,0,0,.57.38,1.64,1.64,0,0,0,.65.13,1.67,1.67,0,0,0,.67-.13,1.62,1.62,0,0,0,.58-.38,1.73,1.73,0,0,0,.37-.59,1.68,1.68,0,0,0,.14-.7A1.59,1.59,0,0,0,36.52,81.28Zm-.83,1.54a1.07,1.07,0,0,1-.79.34,1.11,1.11,0,0,1-.78-.34A1.28,1.28,0,0,1,33.8,82a1.25,1.25,0,0,1,.32-.85,1.12,1.12,0,0,1,.78-.35,1.1,1.1,0,0,1,.8.35,1.3,1.3,0,0,1,0,1.72Z"/>
        <path class="cls-2" d="M37.3,78.64V83.7h.62V78.64Z"/>
        <path class="cls-2" d="M41.94,81.28a1.8,1.8,0,0,0-.39-.58,1.69,1.69,0,0,0-.56-.4,1.89,1.89,0,0,0-.67-.12,1.85,1.85,0,0,0-.67.12,1.8,1.8,0,0,0-.56.4,1.53,1.53,0,0,0-.39.58,2,2,0,0,0-.14.68,2.08,2.08,0,0,0,.14.7,1.84,1.84,0,0,0,.39.59,1.74,1.74,0,0,0,.56.38,1.67,1.67,0,0,0,.67.13,1.7,1.7,0,0,0,.67-.13,1.64,1.64,0,0,0,.56-.38,2,2,0,0,0,.39-.59,2.06,2.06,0,0,0,.12-.7A2,2,0,0,0,41.94,81.28Zm-.84,1.54a1.08,1.08,0,0,1-.78.34,1,1,0,0,1-.78-.34,1.19,1.19,0,0,1-.32-.87,1.16,1.16,0,0,1,.32-.85,1.05,1.05,0,0,1,.78-.35,1.07,1.07,0,0,1,.78.35,1.25,1.25,0,0,1,.32.85A1.28,1.28,0,0,1,41.1,82.82Z"/>
        <path class="cls-2" d="M45.93,81.55a1.51,1.51,0,0,0-.14-.44,1.82,1.82,0,0,0-.64-.68,1.68,1.68,0,0,0-.91-.25,1.67,1.67,0,0,0-1.24.5A1.73,1.73,0,0,0,42.51,82a1.78,1.78,0,0,0,.19.86,1.71,1.71,0,0,0,.58.65,1.44,1.44,0,0,0,.43.21,2.15,2.15,0,0,0,.5.07,1.65,1.65,0,0,0,.94-.24v-.65a2.39,2.39,0,0,1-.44.24,1.59,1.59,0,0,1-.43.06,1.09,1.09,0,0,1-.82-.33,1.29,1.29,0,0,1-.32-.88,1.19,1.19,0,0,1,.3-.86,1.12,1.12,0,0,1,1.61,0,1.37,1.37,0,0,1,.3.89v1.58a1.14,1.14,0,0,1-.3.85,1.09,1.09,0,0,1-.83.3,2.22,2.22,0,0,1-.43,0,4.62,4.62,0,0,1-.54-.15l-.14.6c.21,0,.39.11.57.14a2.44,2.44,0,0,0,.53,0,1.77,1.77,0,0,0,1.3-.48A1.86,1.86,0,0,0,46,83.5V82.24A5.05,5.05,0,0,0,45.93,81.55Z"/>
        <path class="cls-2" d="M46.76,80.23V83.7h.63V80.23ZM47.35,79a.38.38,0,0,0-.27-.1.31.31,0,0,0-.26.11.33.33,0,0,0-.11.27.33.33,0,0,0,.11.26.35.35,0,0,0,.26.11.39.39,0,0,0,.27-.11.36.36,0,0,0,.11-.26A.41.41,0,0,0,47.35,79Z"/>
        <path class="cls-2" d="M50.89,82.08a1.23,1.23,0,0,1-.37.79,1,1,0,0,1-.74.29,1.06,1.06,0,0,1-.78-.34,1.26,1.26,0,0,1-.32-.87A1.21,1.21,0,0,1,49,81.1a1,1,0,0,1,.78-.35,1.22,1.22,0,0,1,.43.08,1.27,1.27,0,0,1,.35.27L48.87,82l.27.48,2.27-1.26a2,2,0,0,0-.68-.81,1.7,1.7,0,0,0-1.61-.14,1.56,1.56,0,0,0-.57.4,1.8,1.8,0,0,0-.39.58A2,2,0,0,0,48,82a1.81,1.81,0,0,0,.88,1.57,1.57,1.57,0,0,0,.42.18,1.77,1.77,0,0,0,.45.05,1.53,1.53,0,0,0,1.14-.43,1.89,1.89,0,0,0,.6-1.17Z"/>
        <path class="cls-2" d="M54.41,82.19a2.06,2.06,0,0,0-.78-.46L53,81.48a1,1,0,0,1-.29-.17.3.3,0,0,1-.09-.2.27.27,0,0,1,.1-.22.38.38,0,0,1,.27-.07h1.45v-.59H53.15a1.46,1.46,0,0,0-.85.23.74.74,0,0,0-.3.65.84.84,0,0,0,.19.56,1.91,1.91,0,0,0,.73.43l.58.24a2.36,2.36,0,0,1,.37.21.31.31,0,0,1,0,.46.54.54,0,0,1-.35.1H52v.59h1.15a2,2,0,0,0,1.11-.23.83.83,0,0,0,.35-.72A.77.77,0,0,0,54.41,82.19Z"/>
      </g>
      <rect class="cls-1" y="81.59" width="13.95" height="0.62"/>
    </g>
  </g>
</svg>
